# xmcd
#
# Track frame offsets: 
#        150
#        12641
#        24856
#        38829
#        60134
#        74698
#        92658
#        107243
#        122746
#        139688
#        154055
#
# Disc length: 2270 seconds
#
# Revision: 0
# Processed by: cddbd v1.5.2PL0 Copyright (c) Steve Scherf et al.
# Submitted via: ExactAudioCopy v0.99pb3
#
DISCID=8c08dc0b
DTITLE=Ismo Haavisto Band - Too Wild For Me
DYEAR=2003
DGENRE=Blues
TTITLE0=Beautiful Smile
TTITLE1=Too Wild For Me
TTITLE2=Leavin' Blues
TTITLE3=He Will Be Gone
TTITLE4=I Don't Care
TTITLE5=Man Of The Road
TTITLE6=Why Should I Stay
TTITLE7=You're Gonna Lose
TTITLE8=All I Have To Do
TTITLE9=Mama Rollin' Stone
TTITLE10=Looks Like A Doll
EXTD=
EXTT0=
EXTT1=
EXTT2=
EXTT3=
EXTT4=
EXTT5=
EXTT6=
EXTT7=
EXTT8=
EXTT9=
EXTT10=
PLAYORDER=
